<?xml version="1.0" standalone="no"?>
<!DOCTYPE svg PUBLIC "-//W3C//DTD SVG 20010904//EN"
 "http://www.w3.org/TR/2001/REC-SVG-20010904/DTD/svg10.dtd">
<svg version="1.0" xmlns="http://www.w3.org/2000/svg"
 width="584.000000pt" height="219.000000pt" viewBox="0 0 584.000000 219.000000"
 preserveAspectRatio="xMidYMid meet">

<g transform="translate(0.000000,219.000000) scale(0.100000,-0.100000)"
fill="#000000" stroke="none">
<path d="M0 1095 l0 -1095 2920 0 2920 0 0 1095 0 1095 -2920 0 -2920 0 0
-1095z m1761 1018 c17 -17 28 -175 17 -263 -11 -101 -42 -199 -91 -295 -38
-75 -65 -104 -456 -498 -375 -376 -419 -417 -448 -417 -35 0 -73 37 -73 72 0
12 141 164 374 401 205 210 390 402 411 427 74 88 122 211 139 357 5 43 3 56
-12 71 -38 38 -239 -3 -361 -75 -60 -36 -182 -151 -747 -705 -140 -138 -157
-146 -199 -103 -53 52 -57 47 363 468 213 213 407 403 432 421 92 68 170 104
295 137 83 22 335 23 356 2z m-1043 -330 c16 -22 16 -74 -1 -97 -8 -11 -40
-23 -87 -32 -40 -7 -102 -27 -138 -44 -74 -35 -162 -96 -162 -113 0 -7 14 -25
30 -41 49 -48 35 -120 -25 -126 -38 -4 -50 0 -85 33 -61 56 -80 87 -80 129 0
54 19 87 82 139 102 86 201 136 328 164 74 16 119 12 138 -12z m2890 -236 l3
-87 37 25 c47 32 118 34 178 4 34 -16 49 -32 70 -75 89 -181 -87 -365 -252
-263 l-34 21 0 -21 c0 -18 -6 -21 -40 -21 l-40 0 0 248 c0 137 3 251 6 254 3
4 20 5 37 5 l32 -2 3 -88z m-1072 55 c6 -4 30 -83 54 -177 23 -93 46 -175 49
-182 3 -6 28 70 55 170 27 100 53 185 58 188 6 4 26 6 46 5 l37 -1 47 -179
c26 -98 49 -183 50 -187 2 -5 23 69 47 164 24 94 47 179 52 188 5 10 21 15 46
15 46 -1 48 14 -22 -216 -29 -96 -58 -194 -64 -217 -12 -43 -12 -43 -59 -43
l-47 0 -44 163 c-24 89 -46 166 -49 172 -6 9 -31 -67 -79 -237 l-27 -98 -48 0
c-44 0 -48 2 -54 28 -4 15 -33 119 -65 232 -32 112 -55 208 -53 212 6 10 55
10 70 0z m-729 -136 c51 -154 66 -341 39 -506 -71 -436 -399 -780 -831 -872
-118 -24 -312 -26 -427 -3 -165 33 -338 116 -476 227 -78 63 -99 117 -68 176
8 15 147 159 308 320 268 266 297 292 328 292 45 0 70 -24 70 -69 0 -34 -17
-53 -275 -311 -223 -223 -272 -277 -262 -288 42 -51 211 -141 334 -179 79 -23
104 -26 243 -27 130 0 168 3 235 22 313 87 548 315 643 623 34 109 46 249 32
354 -25 192 -26 187 11 254 46 83 64 80 96 -13z m1594 21 c56 -30 89 -85 89
-149 l0 -48 -146 0 -145 0 6 -22 c11 -36 45 -67 82 -74 37 -7 89 10 97 32 6
16 96 20 96 5 0 -5 -12 -24 -26 -41 -93 -110 -270 -85 -320 45 -22 60 -15 148
17 198 49 75 163 100 250 54z m-1971 -417 c11 -11 20 -28 21 -37 8 -129 -72
-319 -181 -434 -68 -71 -97 -85 -154 -75 -36 7 -130 92 -142 128 -9 30 15 77
45 85 37 10 52 5 88 -29 39 -37 45 -34 106 56 44 65 83 165 93 239 11 77 78
113 124 67z m3052 -276 l3 -227 104 127 105 126 84 0 c46 0 82 -4 80 -9 -1 -5
-61 -73 -133 -151 -71 -79 -130 -144 -130 -145 0 -2 59 -67 130 -145 72 -78
132 -146 133 -151 2 -5 -34 -9 -80 -8 l-83 0 -105 125 -105 124 -3 -125 -3
-125 -64 0 -65 0 0 405 0 405 65 0 65 0 2 -226z m-1715 176 c93 -10 148 -34
188 -81 37 -45 47 -74 46 -146 0 -97 -46 -168 -130 -203 -21 -8 -30 -18 -27
-27 3 -8 42 -75 86 -150 44 -74 80 -139 80 -144 0 -6 -32 -9 -72 -7 l-72 3
-87 150 -86 150 -47 3 -46 3 0 -156 0 -156 -62 3 -63 3 -3 370 c-1 203 0 376
3 382 5 16 170 17 292 3z m2901 -77 l3 -73 69 0 70 0 0 -55 0 -54 -71 -3 -71
-3 1 -180 c2 -207 1 -205 88 -205 l53 0 0 -56 0 -57 -84 5 c-98 7 -132 20
-163 67 -22 33 -23 42 -23 232 l0 199 -35 0 -35 0 0 55 0 55 35 0 35 0 0 68
c0 38 3 72 7 76 4 4 32 6 63 4 l55 -3 3 -72z m-2160 -93 c105 -47 163 -138
170 -267 6 -110 -15 -169 -85 -239 -62 -63 -127 -88 -228 -88 -88 -1 -166 34
-222 98 -56 64 -76 129 -71 229 7 123 60 211 159 262 71 37 199 39 277 5z
m621 4 c73 -30 130 -91 146 -155 6 -26 6 -26 -53 -28 -59 -2 -61 -1 -103 44
-38 39 -51 46 -94 51 -70 8 -130 -24 -163 -86 -21 -39 -23 -55 -20 -126 3 -62
10 -89 28 -119 31 -50 96 -80 156 -71 55 7 80 22 106 64 19 32 22 33 80 31 32
-1 61 -6 64 -11 3 -4 -7 -31 -22 -58 -48 -88 -127 -132 -239 -134 -184 -2
-305 118 -305 303 0 162 77 273 213 307 60 15 154 10 206 -12z m1164 -6 c58
-25 120 -93 141 -155 9 -26 16 -75 16 -110 l0 -63 -230 0 c-257 0 -247 3 -210
-71 51 -99 182 -118 264 -38 38 37 43 40 94 38 63 -3 72 -15 44 -61 -55 -88
-139 -132 -252 -132 -98 0 -164 28 -224 95 -54 60 -76 121 -76 209 0 167 84
279 232 310 58 12 143 2 201 -22z"/>
<path d="M3651 1410 c-77 -78 -31 -215 74 -215 49 0 80 22 101 72 18 42 18 67
-2 109 -33 69 -121 86 -173 34z"/>
<path d="M3243 1422 c-12 -9 -27 -30 -32 -45 l-11 -28 103 3 c96 3 102 4 99
23 -2 11 -14 30 -28 43 -31 27 -99 30 -131 4z"/>
<path d="M2600 745 l0 -127 104 4 c94 3 107 5 130 27 56 53 52 151 -7 195 -23
17 -46 22 -128 24 l-99 4 0 -127z"/>
<path d="M3279 687 c-53 -36 -79 -90 -79 -167 0 -109 46 -180 127 -198 128
-29 223 55 223 197 0 121 -65 191 -176 191 -47 0 -69 -5 -95 -23z"/>
<path d="M5080 698 c-42 -22 -89 -82 -90 -115 0 -10 40 -13 165 -13 154 0 165
1 165 19 0 24 -38 79 -72 104 -41 31 -114 33 -168 5z"/>
</g>
</svg>
